<?xml version="1.0" encoding="utf-8"?>
<!-- Generator: Adobe Illustrator 23.0.1, SVG Export Plug-In . SVG Version: 6.00 Build 0)  -->
<svg version="1.1" id="Ebene_1" xmlns="http://www.w3.org/2000/svg" xmlns:xlink="http://www.w3.org/1999/xlink" x="0px" y="0px"
	 width="851.1px" height="634.6px" viewBox="0 0 851.1 634.6" enable-background="new 0 0 851.1 634.6" xml:space="preserve">
<g>
	<path fill="#AA272F" d="M169.4,442.9c-33.3,0-84.7-6.3-122-34C10.1,381.2-5.3,338.7,1.6,282.6c11.8-96.7,109.8-169.8,167.2-204.7
		c43.7-26.6,92.7-49.1,138.1-63.4C349.3,1,382.7-3.3,398.5,2.6l2,0.8l-1.9,1c-14.5,7.4-32.1,14.6-50.7,22.3
		c-85,34.9-201.5,82.8-251.3,229.3c-18.1,53.3-17.6,96.2,1.5,127.3c17.8,28.9,51,47.1,98.8,54c4.6,0.7,5.1,0.8,5.5,1.4l0.6,0.9
		l-1,0.4C199.2,441.1,186.8,442.9,169.4,442.9z"/>
	<path fill="#00549F" d="M373.3,634.6c-35,0-68.1-16.5-98.8-49.4c-66.5-71.1-59.5-193-49.5-259.3c7.7-50.7,22-102.8,40.2-146.8
		c17.1-41.2,35.3-69.6,50-78l1.9-1.1l-0.5,2.1c-3.7,15.8-9.4,33.8-15.5,52.9c-28,87.6-66.3,207.7,14.1,340.1
		c29.3,48.2,62.4,75.4,98.7,80.7c33.7,4.9,69-8.9,104.9-41.3c3.2-2.9,3.6-3.2,4.3-3.2l1.1,0.1l-0.3,1.1
		c-2.4,8.6-53.6,81.8-122.6,98.6C391.7,633.4,382.4,634.6,373.3,634.6z"/>
	<path fill="#008542" d="M680,539.2c-64.1,0-128.9-22.9-169.8-40.8c-46.9-20.5-93.5-47.8-131.2-76.7c-35.3-27.1-58-52-62.3-68.4
		l-0.5-2.1l1.9,1c14.3,7.6,30.4,17.9,47.3,28.8c77.4,49.6,183.3,117.6,332,74.3c54-15.7,88.8-40.7,103.4-74.2
		c13.5-31.2,9.3-68.8-12.5-111.9c-2.1-4.1-2.3-4.5-2-5.2l0.4-1l0.9,0.6c7.7,4.7,65.3,73.7,63.3,144.5
		c-1.3,46.3-27.3,83.3-77.2,109.9C744.9,533.3,712.6,539.2,680,539.2z"/>
</g>
</svg>
